<?xml version="1.0" encoding="utf-8"?>
<!-- Generator: Adobe Illustrator 22.1.0, SVG Export Plug-In . SVG Version: 6.00 Build 0)  -->
<svg version="1.1" id="neuwelt" xmlns="http://www.w3.org/2000/svg" xmlns:xlink="http://www.w3.org/1999/xlink" x="0px" y="0px"
	 viewBox="0 0 1439.3 639.5" style="enable-background:new 0 0 1439.3 639.5;" xml:space="preserve">
<style type="text/css">
	.st0{display:none;}
	.st1{display:inline;fill:#EB0008;}
	.st2{fill:#EB0008;}
</style>
<g>
	<path d="M587.4,455.2v-0.4c2.4-0.2,6-0.6,10.7-1.2v62.2c0,1.4,0.8,2.1,2.3,2.1h1.3l0.1,1.6c-1.6,0.1-3.9,0.2-7.1,0.5
		c-3.2,0.3-5.6,0.4-7.2,0.5v-1.6h1.3c1.5,0,2.3-0.7,2.3-2.1v-58.5c0-1.3-0.6-1.9-1.8-1.9C588,455.9,587.4,455.5,587.4,455.2z"/>
	<path d="M649.9,512.8c-4.5,5.6-10.6,8.4-18.4,8.4c-6.3,0-11.7-2.3-16-7c-4.4-4.6-6.5-10.3-6.5-17c0-6.8,2.1-12.5,6.4-17.1
		c4.3-4.6,9.7-6.9,16.1-6.9c5.2,0,9.6,1.7,13.3,5c3.4,3.1,5.5,7.1,6.1,11.9L617,501.7c0.8,3.9,2.1,7.1,4,9.5c3,3.8,6.9,5.6,11.8,5.6
		c6,0,11.3-2.7,16-8.1c0.2,0.4,0.4,1.1,0.6,2C649.5,511.7,649.7,512.4,649.9,512.8z M616.6,497.7c5.6-2.1,13.9-5.4,25.1-9.7
		c-1.1-7-4.6-10.4-10.3-10.4c-4.7,0-8.3,1.7-10.9,5c-2.6,3.3-3.9,7.9-3.9,13.8V497.7z"/>
	<path d="M667.4,509.3c0,2.8,0.5,4.7,1.6,5.8c1.1,1.1,2.9,1.6,5.5,1.6c2.1,0,3.9-2.1,5.4-6.3l1.3,2.5c-0.6,1.4-1.2,2.6-2,3.7
		c-1.8,2.5-3.9,3.9-6.4,4.2c-0.7,0.1-1.3,0.1-2,0.1c-3.4,0-6-1.1-7.9-3.4c-1.8-2.3-2.8-5.3-2.8-9.2v-29.8h-6.5l0.7-4.3
		c3.2,0,5.5-1,7-3c1-0.8,1.9-2.7,2.8-5.7c0.9-3.6,1.5-5.5,1.7-5.8h1.5v14.6h13v4.3h-13V509.3z"/>
	<path d="M718.4,506.5c0,4.4-1.6,7.9-4.7,10.6c-3.1,2.7-7.3,4-12.4,4c-5.4,0-10.2-1.8-14.4-5.5c-0.8,0-1.2,0.5-1.3,1.5h-1.3v-8.1
		c0.4-0.3,0.9-0.6,1.7-0.9c0.8-0.4,1.3-0.7,1.7-0.8c2.7,6.3,7.3,9.5,13.9,9.5c2.9,0,5.3-0.8,7.4-2.3c2-1.5,3.1-3.4,3.1-5.7
		c0-2.6-1-4.5-2.9-5.9c-1.9-1.4-5-2.5-9.3-3.4c-9.8-2-14.8-6.4-14.8-13.3c0-3.8,1.5-6.9,4.6-9.4c3-2.5,6.7-3.7,11-3.7
		c2.7,0,5.5,0.5,8.4,1.6c2.3,0.9,4,1.8,5.2,2.8c0.6,0,0.9-0.4,1-1.2h1.5v6.9c-1,0.8-2,1.5-3.1,2.2c-2.4-5.3-6.7-7.9-12.8-7.9
		c-3,0-5.3,0.6-6.9,1.9c-1.6,1.3-2.4,3-2.4,5.1c0,2,0.8,3.6,2.4,4.9c1.6,1.3,4.5,2.3,8.7,3.3c5.9,1.3,10,3.1,12.3,5.2
		C717.2,500.2,718.4,503,718.4,506.5z"/>
	<path d="M753.9,478.6c0-1.3-0.5-1.9-1.5-1.9c-1-0.4-1.5-1-1.5-1.7c4.5-0.6,7.9-1,10.2-1.4v46.5c0,11.2-5.6,16.9-16.9,16.9
		c-1.6,0-3-0.5-4-1.4c-1-0.9-1.6-1.9-1.6-3c0-2.3,0.7-3.7,2-4.3l1.1-0.3c0.6,0,0.9,0.4,0.9,1.2c0,1.6-0.6,2.4-1.9,2.5
		c0.3,0.6,1.1,0.9,2.4,0.9h2c2.8,0.1,4.9-0.7,6.4-2.4c1.5-1.7,2.3-4.7,2.3-9V478.6z M751.9,458.9c0-0.6,0.6-1.6,1.9-3
		c1.3-1.4,2.2-2.1,2.9-2.1c0.6,0,1.6,0.7,2.9,2.1c1.3,1.4,1.9,2.4,1.9,3c0,0.6-0.6,1.6-1.9,3c-1.3,1.4-2.2,2.1-2.9,2.1
		c-0.6,0-1.6-0.7-2.9-2.1C752.6,460.5,751.9,459.5,751.9,458.9z"/>
	<path d="M818,497.2c0,6.7-2.3,12.4-6.9,17c-4.6,4.6-10.2,7-16.7,7c-6.6,0-12.1-2.3-16.7-7c-4.5-4.6-6.8-10.3-6.8-17
		c0-6.7,2.3-12.4,6.8-17c4.5-4.6,10.1-7,16.7-7c6.6,0,12.2,2.3,16.8,7C815.8,484.8,818,490.5,818,497.2z M810.2,497.2
		c0-6-1.4-10.8-4.2-14.3c-2.8-3.5-6.7-5.3-11.6-5.3s-8.7,1.8-11.5,5.3c-2.8,3.5-4.2,8.3-4.2,14.3c0,6,1.4,10.8,4.2,14.3
		c2.8,3.5,6.6,5.3,11.5,5.3s8.7-1.8,11.6-5.3C808.8,508,810.2,503.2,810.2,497.2z"/>
	<path d="M863.8,516c0,1.3,1.1,2,3.2,2v1.6c-2.3,0.2-5.6,0.4-10.1,0.7V512c-3.7,6.1-8.7,9.2-15,9.2c-4.8,0-8.5-1.5-11.1-4.5
		c-2.6-3-3.9-7.3-3.9-13v-25.1c0-1.4-0.7-2-2.2-1.9h-1.1V475c1.2-0.1,2.9-0.2,5.2-0.4c2.3-0.2,4-0.3,5.2-0.4v30.8
		c0,4.1,0.8,7.1,2.3,8.9c1.5,1.9,3.9,2.8,7.3,2.8c4,0,7-1.4,9.1-4.1c2-2.8,3.3-7,3.8-12.8v-21.3c0-1.3-0.8-1.9-2.4-1.9h-1.3V475
		c2.4-0.2,6.1-0.4,10.9-0.8V516z"/>
	<path d="M884,515.8c0,1.1,0.5,1.8,1.6,2c0.1,0.1,1.1,0.1,2.9,0.1v1.6c-1.7,0.1-4.2,0.2-7.6,0.5c-3.4,0.3-5.9,0.4-7.6,0.5v-1.6
		c1.4,0,2.2,0,2.4-0.1c0.8-0.2,1.1-0.9,1.1-1.9v-38.6c0-1.3-0.6-1.9-1.7-1.9c-1.1-0.6-1.7-1.2-1.7-1.7c4.1-0.3,7.6-0.6,10.2-1v12.1
		c2.5-8.3,7.3-12.5,14.5-12.5c3,0,4.5,1.1,4.5,3.3c0,1-0.5,1.9-1.6,2.8c-1,0.8-2.1,1.3-3.1,1.3c-0.9,0-1.4-0.3-1.4-1
		c0-0.8,0.4-1.4,1.1-1.9c-0.1,0-0.3,0-0.7-0.1c-0.3,0-0.6,0-0.8,0c-4.3,0-7.6,3.1-9.9,9.2c-1.7,4.6-2.5,9.5-2.5,14.7V515.8z"/>
	<path d="M944.7,515.8c0,1.4,0.7,2.1,2.1,2.1h1.2l0.1,1.6c-4.6,0.3-8.1,0.6-10.5,0.9v-31.8c0-7.4-3.3-11.1-9.8-11.1
		c-3.5,0-6.5,1.4-8.9,4.3c-2.4,2.9-3.7,6.3-3.7,10.3v23.7c0,1.4,0.8,2.1,2.3,2.1h1.4v1.6c-1.6,0.1-3.9,0.2-7.1,0.5
		c-3.1,0.3-5.5,0.4-7.1,0.5v-1.6h1.2c1.4,0,2.1-0.7,2.1-2v-38.6c0-1.3-0.5-1.9-1.6-1.9c-1.1-0.6-1.7-1.1-1.7-1.7
		c0.6-0.1,1.4-0.2,2.5-0.3c1.1-0.1,1.9-0.2,2.4-0.2c1.6-0.1,3.3-0.3,5.1-0.6v8.4c3.8-5.8,8.7-8.7,14.6-8.7c4.9,0,8.7,1.5,11.3,4.5
		c2.7,3,4,7.2,4,12.6V515.8z"/>
	<path d="M994.9,512.8c-4.4,5.6-10.6,8.4-18.4,8.4c-6.3,0-11.7-2.3-16-7c-4.4-4.6-6.5-10.3-6.5-17c0-6.8,2.1-12.5,6.4-17.1
		c4.3-4.6,9.7-6.9,16.1-6.9c5.2,0,9.6,1.7,13.3,5c3.4,3.1,5.5,7.1,6.1,11.9L962,501.7c0.8,3.9,2.1,7.1,4,9.5c3,3.8,6.9,5.6,11.8,5.6
		c6,0,11.3-2.7,16-8.1c0.2,0.4,0.4,1.1,0.6,2C994.5,511.7,994.7,512.4,994.9,512.8z M961.6,497.7c5.6-2.1,13.9-5.4,25.1-9.7
		c-1.1-7-4.6-10.4-10.3-10.4c-4.7,0-8.3,1.7-10.9,5c-2.6,3.3-3.9,7.9-3.9,13.8V497.7z"/>
	<path d="M1032.4,475.4v-1.6c3.9,0.3,7.7,0.4,11.6,0.6v1.6c-1.2,0-2,0.2-2.5,0.5c-0.5,0.3-0.9,1.1-1.2,2.3l-22.3,49
		c-1.5,3.3-2.7,5.4-3.6,6.6c-1.4,1.8-3.2,2.7-5.3,2.7c-1.3,0-2.3-0.4-3.2-1.2c-0.8-0.8-1.3-1.7-1.3-2.9l-0.1-1c0-1.3,0.5-2,1.4-2
		c1.3,0,1.9,0.5,1.9,1.6c0,1.4-0.8,2.3-2.3,2.7c0.1,0.1,0.2,0.3,0.4,0.4c0.2,0.1,0.5,0.2,0.9,0.2c2.2,0,4-1.9,5.4-5.7
		c1.3-2.9,3.4-7.3,6.1-13.1l-18.1-38.2c-0.4-1.4-1.5-2.1-3.3-2.1l-0.1-1.6c4,0,8.5-0.2,13.5-0.5v1.6c-1.8,0-2.8,0.2-3.1,0.5
		l-0.1,0.5c0,0.7,0.2,1.5,0.8,2.5l14.2,29.1l13.1-29.4c0.3-0.6,0.4-1.2,0.4-1.8c0-0.4-0.2-0.7-0.5-1
		C1034.5,475.5,1033.5,475.4,1032.4,475.4z"/>
	<path d="M1080.3,509.3c0,2.8,0.5,4.7,1.6,5.8c1.1,1.1,2.9,1.6,5.5,1.6c2.1,0,3.9-2.1,5.4-6.3l1.3,2.5c-0.6,1.4-1.2,2.6-2,3.7
		c-1.8,2.5-3.9,3.9-6.4,4.2c-0.7,0.1-1.4,0.1-2,0.1c-3.4,0-6-1.1-7.9-3.4c-1.8-2.3-2.8-5.3-2.8-9.2v-29.8h-6.5l0.7-4.3
		c3.2,0,5.5-1,7-3c1-0.8,1.9-2.7,2.8-5.7c0.9-3.6,1.5-5.5,1.7-5.8h1.5v14.6h13v4.3h-13V509.3z"/>
	<path d="M1144.7,497.2c0,6.7-2.3,12.4-6.9,17c-4.6,4.6-10.2,7-16.7,7c-6.6,0-12.1-2.3-16.7-7c-4.5-4.6-6.8-10.3-6.8-17
		c0-6.7,2.3-12.4,6.8-17c4.5-4.6,10.1-7,16.7-7c6.6,0,12.2,2.3,16.8,7C1142.4,484.8,1144.7,490.5,1144.7,497.2z M1136.9,497.2
		c0-6-1.4-10.8-4.2-14.3c-2.8-3.5-6.7-5.3-11.6-5.3c-4.9,0-8.7,1.8-11.5,5.3c-2.8,3.5-4.2,8.3-4.2,14.3c0,6,1.4,10.8,4.2,14.3
		c2.8,3.5,6.6,5.3,11.5,5.3c4.9,0,8.7-1.8,11.6-5.3C1135.5,508,1136.9,503.2,1136.9,497.2z"/>
	<path d="M1151.1,489.3c0-4.6,1.8-8.5,5.3-11.5c3.5-3,7.9-4.6,13.2-4.6c1.9,0,4,0.3,6.1,0.8c6.5-2.8,10.8-4.2,13.1-4.2
		c1.9,0,2.9,0.8,2.9,2.5c0,1.3-0.7,1.9-2,2l-2.3,0.1c-3.3,0-5.2,0.8-5.6,2.3c0.4,0.3,0.8,0.6,1.4,1c3.8,3,5.6,6.8,5.6,11.4
		c0,4.4-1.7,8-5.2,10.9c-3.5,2.9-7.8,4.3-13,4.3c-3.8,0-6.7-0.5-8.9-1.5l-0.3,0.1c-1.1,0.4-1.7,0.8-1.7,1.4c0,1.1,1.2,1.8,3.7,2.2
		c1.5,0.2,4.8,0.3,10,0.5c5.2,0.1,9.4,1.4,12.6,3.8c3.5,2.6,5.3,6.1,5.3,10.5c0,4.9-2.2,9-6.5,12.1c-4.4,3.1-9.6,4.7-15.8,4.7
		c-4.9,0-9.6-1.3-13.9-3.9c-4.3-2.6-6.5-5.2-6.5-7.8c0-3,3.2-4.8,9.7-5.5c0.6-0.1,1.6-0.2,2.9-0.4c-4.8,1-7.2,2.3-7.2,3.8
		c0,1.8,1.5,3.8,4.6,5.9c3.4,2.4,7.1,3.6,11,3.6c4.2,0,7.8-0.9,10.8-2.7c3.3-2,5-4.6,5-7.9c0-3.1-1.5-5.6-4.4-7.7
		c-2.9-2.1-6.9-3-11.8-2.9l-3.3,0.1c-0.1,0-2-0.1-5.6-0.2c-3.4-0.1-5.1-1-5.1-2.6c0-1.1,0.7-2.4,2.1-4.1c1.3-1.5,2.4-2.6,3.6-3.2
		C1154.2,499.4,1151.1,495,1151.1,489.3z M1170.2,477.3c-3.4,0-6.3,1.1-8.4,3.2c-2.2,2.2-3.2,5-3.2,8.5c0,3.6,1,6.4,3.1,8.6
		c2.1,2.2,4.9,3.2,8.5,3.2c3.4,0,6.1-1.1,8.2-3.2c2.1-2.2,3.1-5,3.1-8.5c0-3.5-1.1-6.4-3.1-8.6
		C1176.1,478.4,1173.4,477.3,1170.2,477.3z"/>
	<path d="M1237.9,512.8c-4.4,5.6-10.6,8.4-18.4,8.4c-6.3,0-11.7-2.3-16-7c-4.4-4.6-6.5-10.3-6.5-17c0-6.8,2.1-12.5,6.4-17.1
		c4.3-4.6,9.7-6.9,16.1-6.9c5.2,0,9.6,1.7,13.3,5c3.4,3.1,5.5,7.1,6.1,11.9l-33.9,11.6c0.8,3.9,2.1,7.1,4,9.5
		c3,3.8,6.9,5.6,11.8,5.6c6,0,11.3-2.7,16-8.1c0.2,0.4,0.4,1.1,0.6,2C1237.5,511.7,1237.7,512.4,1237.9,512.8z M1204.6,497.7
		c5.6-2.1,13.9-5.4,25.1-9.7c-1.1-7-4.6-10.4-10.3-10.4c-4.7,0-8.3,1.7-10.9,5c-2.6,3.3-3.9,7.9-3.9,13.8V497.7z"/>
	<path d="M1255.4,509.3c0,2.8,0.5,4.7,1.6,5.8c1.1,1.1,2.9,1.6,5.5,1.6c2.1,0,3.9-2.1,5.4-6.3l1.3,2.5c-0.6,1.4-1.2,2.6-2,3.7
		c-1.8,2.5-3.9,3.9-6.4,4.2c-0.7,0.1-1.3,0.1-2,0.1c-3.4,0-6-1.1-7.9-3.4c-1.8-2.3-2.8-5.3-2.8-9.2v-29.8h-6.5l0.7-4.3
		c3.2,0,5.5-1,7-3c1-0.8,1.9-2.7,2.8-5.7c0.9-3.6,1.5-5.5,1.7-5.8h1.5v14.6h13v4.3h-13V509.3z"/>
	<path d="M1313.2,515.8c0,1.4,0.7,2.1,2.1,2.1h1.2v1.6c-4.5,0.3-8,0.6-10.4,0.9v-31.8c0-7.4-3.3-11.1-9.8-11.1
		c-3.5,0-6.5,1.4-8.9,4.3c-2.4,2.9-3.7,6.3-3.7,10.3v23.7c0,1.4,0.8,2.1,2.3,2.1h1.4l-0.1,1.6c-0.8,0.1-2.5,0.2-5.3,0.5
		c-2.3,0.2-4,0.3-5.4,0.3c-0.3,0-1.4,0.1-3.4,0.2v-1.6h1.2c1.4,0,2.1-0.7,2.1-2.1v-58.5c0-1.3-0.5-1.9-1.6-1.9
		c-1.1-0.5-1.7-1-1.7-1.6c2.3-0.2,5.8-0.7,10.4-1.2V482c3.2-5.8,7.9-8.7,14.2-8.7c4.9,0,8.7,1.5,11.3,4.5c2.7,3,4,7.2,4,12.6V515.8z
		"/>
	<path d="M1363.3,512.8c-4.4,5.6-10.6,8.4-18.4,8.4c-6.3,0-11.7-2.3-16-7c-4.4-4.6-6.5-10.3-6.5-17c0-6.8,2.1-12.5,6.4-17.1
		c4.3-4.6,9.7-6.9,16.1-6.9c5.2,0,9.6,1.7,13.3,5c3.4,3.1,5.5,7.1,6.1,11.9l-33.9,11.6c0.8,3.9,2.1,7.1,4,9.5
		c3,3.8,6.9,5.6,11.8,5.6c6,0,11.3-2.7,16-8.1c0.2,0.4,0.4,1.1,0.6,2C1362.9,511.7,1363.1,512.4,1363.3,512.8z M1330,497.7
		c5.6-2.1,13.9-5.4,25.1-9.7c-1.1-7-4.6-10.4-10.3-10.4c-4.7,0-8.3,1.7-10.9,5c-2.6,3.3-3.9,7.9-3.9,13.8V497.7z"/>
	<path d="M1380.5,515.8c0,1.1,0.5,1.8,1.6,2c0.1,0.1,1.1,0.1,2.9,0.1v1.6c-1.7,0.1-4.2,0.2-7.6,0.5c-3.4,0.3-5.9,0.4-7.6,0.5v-1.6
		c1.4,0,2.2,0,2.4-0.1c0.8-0.2,1.1-0.9,1.1-1.9v-38.6c0-1.3-0.6-1.9-1.7-1.9c-1.1-0.6-1.7-1.2-1.7-1.7c4.1-0.3,7.6-0.6,10.2-1v12.1
		c2.5-8.3,7.3-12.5,14.5-12.5c3,0,4.5,1.1,4.5,3.3c0,1-0.5,1.9-1.6,2.8c-1,0.8-2.1,1.3-3.1,1.3c-0.9,0-1.4-0.3-1.4-1
		c0-0.8,0.4-1.4,1.1-1.9c-0.1,0-0.3,0-0.7-0.1c-0.3,0-0.6,0-0.8,0c-4.3,0-7.6,3.1-9.9,9.2c-1.7,4.6-2.5,9.5-2.5,14.7V515.8z"/>
</g>
<g>
	<path d="M697.3,374.6l15.1,7.9c-5,9.7-10.7,17.6-17.2,23.6c-6.5,6-13.8,10.5-21.9,13.6c-8.1,3.1-17.3,4.7-27.6,4.7
		c-22.7,0-40.5-7.5-53.3-22.4c-12.8-14.9-19.2-31.8-19.2-50.5c0-17.7,5.4-33.4,16.3-47.3c13.8-17.6,32.2-26.4,55.3-26.4
		c23.8,0,42.7,9,56.9,27c10.1,12.7,15.2,28.6,15.4,47.7H591.6c0.3,16.2,5.5,29.5,15.5,39.8c10,10.4,22.4,15.5,37.1,15.5
		c7.1,0,14-1.2,20.7-3.7c6.7-2.5,12.4-5.7,17.1-9.8C686.7,390.3,691.8,383.7,697.3,374.6z M697.3,337c-2.4-9.6-5.9-17.2-10.5-22.9
		c-4.6-5.7-10.6-10.3-18.2-13.8c-7.5-3.5-15.4-5.3-23.7-5.3c-13.7,0-25.4,4.4-35.3,13.2c-7.2,6.4-12.6,16-16.3,28.8H697.3z"/>
	<path d="M748.2,281.4h17.9v65.1c0,15.9,0.9,26.8,2.6,32.8c2.6,8.5,7.5,15.3,14.7,20.2c7.2,5,15.8,7.4,25.9,7.4
		c10,0,18.5-2.4,25.5-7.2c7-4.8,11.8-11.2,14.4-19c1.8-5.4,2.7-16.8,2.7-34.2v-65.1h18.3v68.4c0,19.2-2.2,33.7-6.7,43.4
		c-4.5,9.7-11.2,17.4-20.2,22.9c-9,5.5-20.3,8.3-33.9,8.3c-13.6,0-24.9-2.8-34-8.3c-9.1-5.5-15.9-13.2-20.4-23.1
		c-4.5-9.9-6.7-24.7-6.7-44.5V281.4z"/>
	<path d="M891.1,281.4h18.4l42.7,101.2l44.5-101.2h3.3l44.8,101.2l43.6-101.2h18.7l-60.6,139.4h-3.3L998.6,321L954,420.8h-3.3
		L891.1,281.4z"/>
	<path d="M1245.4,374.6l15.1,7.9c-5,9.7-10.7,17.6-17.2,23.6c-6.5,6-13.8,10.5-21.9,13.6c-8.1,3.1-17.3,4.7-27.6,4.7
		c-22.7,0-40.5-7.5-53.3-22.4c-12.8-14.9-19.2-31.8-19.2-50.5c0-17.7,5.4-33.4,16.3-47.3c13.8-17.6,32.2-26.4,55.3-26.4
		c23.8,0,42.7,9,56.9,27c10.1,12.7,15.2,28.6,15.4,47.7h-125.4c0.3,16.2,5.5,29.5,15.5,39.8c10,10.4,22.4,15.5,37.1,15.5
		c7.1,0,14-1.2,20.7-3.7c6.7-2.5,12.4-5.7,17.1-9.8C1234.8,390.3,1239.9,383.7,1245.4,374.6z M1245.4,337
		c-2.4-9.6-5.9-17.2-10.5-22.9c-4.6-5.7-10.6-10.3-18.1-13.8c-7.5-3.5-15.4-5.3-23.7-5.3c-13.7,0-25.4,4.4-35.3,13.2
		c-7.2,6.4-12.6,16-16.3,28.8H1245.4z"/>
	<path d="M1295.9,227.6h17.9v193.2h-17.9V227.6z"/>
	<path d="M1366.7,229.7h17.9v51.8h28.4v15.5h-28.4v123.9h-17.9V296.9h-24.5v-15.5h24.5V229.7z"/>
</g>
<g>
	<g class="st0">
		<path class="st1" d="M38.8,139v378.8c9.5,12.5,19.9,24.3,31.1,35.2V103.8C58.7,114.7,48.2,126.5,38.8,139z"/>
		<path class="st1" d="M146.5,263.9c9.4-37.8,29.2-69.9,58.9-95.6c29.7-25.6,62.2-38.1,99.5-38.1c31.8,0,57.7,8,77,23.6
			c19.3,15.7,32.6,40,39.7,72.5c4.7,19.7,7.1,60.5,7.1,121.4V610c11.7-5.7,23-12.1,33.8-19.2h-2.6v-243c0-64.2-2.6-106.2-7.8-128.3
			c-8.6-39.2-25.5-69.4-50.4-89.7c-25-20.3-57.5-30.6-96.6-30.6c-44.4,0-84.8,15.3-119.8,45.6c-34.6,29.9-57.8,67.5-68.8,111.7
			c-6.8,28.4-10.1,77.8-10.1,151v175.9c9.9,7.1,20.3,13.7,31.1,19.6V407.5C137.3,337.7,140.4,289.3,146.5,263.9z"/>
		<path class="st1" d="M106.2,209.4l28.1-38.7c25.6-35.2,54.1-61.8,84.7-79c30.2-17,63.6-25.7,99.3-25.7c35.9,0,68,9.5,95.6,28.2
			c28,19,48.2,43.9,61.6,76.2c13.6,32.8,20.5,85.6,20.5,156.9v237.8c11.1-9.7,21.5-20.1,31.1-31.3V327.4
			c0-76.5-7.5-131.7-22.9-168.8c-15.6-37.6-40.1-67.9-72.9-90.1c-32.8-22.3-70.9-33.6-113.1-33.6c-41.1,0-79.7,10-114.6,29.7
			C180.3,77.7,158,95.7,137.3,118V53.7c-14,7.8-27.4,16.5-40,26.3h8.9V209.4z"/>
	</g>
	<g>
		<path class="st2" d="M67.9,555c-11.3-11-21.9-23-31.4-35.5l-0.6-0.8V138l0.6-0.8c9.5-12.5,20.1-24.5,31.4-35.5l4.8-4.7v462.6
			L67.9,555z"/>
		<path class="st2" d="M425.8,347.8c0-60.6-2.3-101.2-7-120.7c-6.9-31.8-20-55.7-38.7-71c-18.8-15.3-44-23-75.2-23
			c-36.6,0-68.5,12.2-97.7,37.4c-29.2,25.3-48.7,56.9-58,94.1c-6,25.3-9.1,73.4-9.1,143v200.3l-4.2-2.3c-10.8-6-21.4-12.7-31.4-19.8
			l-1.2-0.8V407.5c0-73.5,3.3-123.1,10.2-151.7c11.2-44.8,34.6-82.9,69.7-113.2c35.6-30.7,76.5-46.3,121.7-46.3
			c39.8,0,72.9,10.5,98.4,31.2c25.4,20.7,42.6,51.4,51.3,91.3c5.3,22.3,7.9,64.5,7.9,128.9l0,246.2c-10.9,7.1-21,12.8-32.7,18.5
			l-4.1,2V347.8z"/>
		<path class="st2" d="M493.3,327.4c0-70.9-6.8-123.3-20.3-155.8c-13.2-31.8-33-56.3-60.6-75c-27.1-18.4-58.8-27.7-94-27.7
			c-35.2,0-68.2,8.5-98,25.3c-30.3,17-58.5,43.3-83.8,78.2l-33.3,45.8V82.8H89l6.6-5.1c12.7-9.8,26.3-18.8,40.4-26.5l4.2-2.3v62
			c19.5-20.1,40.4-36.6,62.3-48.8c35.4-19.9,74.4-30,116-30c42.8,0,81.4,11.5,114.7,34.1c33.2,22.5,58.1,53.2,73.9,91.3
			c15.6,37.5,23.1,93.1,23.1,169.9v207.6l-0.7,0.8c-9.7,11.2-20.2,21.8-31.4,31.6l-4.7,4.1V327.4z"/>
	</g>
</g>
<g class="st0">
	<path class="st1" d="M203.8,64.5c34.9-19.7,73.5-29.7,114.6-29.7c42.2,0,80.3,11.3,113.1,33.6c32.8,22.2,57.3,52.5,72.9,90.1
		c15.4,37.1,22.9,92.4,22.9,168.8v201c0,1.9,2.4,2.8,3.6,1.3c44.7-53.9,71.6-123.6,71.6-201.2c0-173.3-140.4-313.7-313.6-313.7
		c-30,0-59,4.2-86.4,12.1c-38.5,11-65.1,46.1-65.1,86.1v0c0,1.8,2.2,2.7,3.5,1.4C160.5,93.7,181.6,77,203.8,64.5z"/>
	<path class="st1" d="M116.3,256.5c11-44.3,34.2-81.8,68.8-111.7c35.1-30.3,75.4-45.6,119.8-45.6c39.1,0,71.6,10.3,96.6,30.6
		c24.9,20.3,41.8,50.5,50.4,89.7c5.3,22.1,7.8,64.2,7.8,128.3v240.9c0,1.1,0.9,2,2,2l0,0c0.4,0,0.8-0.1,1.1-0.3
		c0.1-0.1,0.2-0.2,0.3-0.2c20.6-13.6,32.9-36.8,32.9-61.6V327.4c0-71.3-6.9-124.1-20.5-156.9c-13.4-32.3-33.5-57.3-61.6-76.2
		C386.4,75.5,354.3,66,318.4,66c-35.7,0-69.1,8.6-99.3,25.7c-30.6,17.2-59.1,43.8-84.7,79l-24.5,33.7c-1.2,1.6-3.7,0.8-3.7-1.2V82
		c0-1.1-0.9-2-2-2H98c-0.5,0-0.9,0.2-1.3,0.4c-0.1,0.1-0.2,0.1-0.3,0.2c-16.8,13.1-26.6,33.3-26.6,54.7v380.3
		c0,25.6,11.9,49.9,32.5,65.1c0.2,0.2,0.4,0.3,0.6,0.5c1.3,1,3.2,0,3.2-1.6V407.5C106.2,334.3,109.5,284.9,116.3,256.5z"/>
	<path class="st2" d="M428.7,347.8c0-60.8-2.4-101.7-7.1-121.4c-7.1-32.5-20.4-56.8-39.7-72.5c-19.3-15.7-45.2-23.6-77-23.6
		c-37.3,0-69.8,12.5-99.5,38.1c-29.7,25.7-49.5,57.8-58.9,95.6c-6.1,25.4-9.2,73.8-9.2,143.7v83.6c0,82.9,66.9,150.5,149.8,150.9
		c0.5,0,1.1,0,1.6,0c0.5,0,1,0,1.5,0c76.6-0.3,138.3-62.8,138.3-139.3V347.8z"/>
	<path class="st1" d="M-24.9,328.4c0,68.9,22.3,132.6,60,184.4c1.2,1.6,3.7,0.8,3.7-1.2V145.1c0-2-2.5-2.8-3.7-1.2
		C-2.6,195.7-24.9,259.5-24.9,328.4z"/>
</g>
</svg>
